<svg width="91" height="19" viewBox="0 0 91 19" fill="none" xmlns="http://www.w3.org/2000/svg">
<path d="M0.517045 18H4.20739V10.7898H11.3068V7.74716H4.20739V3.58807H12.0739V0.545454H0.517045V18ZM15.3849 18L16.6804 14.0199H22.9787L24.2741 18H28.2287L22.2116 0.545454H17.456L11.4304 18H15.3849ZM17.6179 11.1392L19.7656 4.53409H19.902L22.0497 11.1392H17.6179ZM39.3999 5.56534H42.9368C42.8857 2.45454 40.3288 0.306818 36.4425 0.306818C32.6158 0.306818 29.8118 2.42045 29.8288 5.59091C29.8203 8.16477 31.6357 9.6392 34.5845 10.3466L36.4851 10.8239C38.3857 11.2841 39.4425 11.8295 39.451 13.0057C39.4425 14.2841 38.2322 15.1534 36.3572 15.1534C34.4396 15.1534 33.0589 14.267 32.9396 12.5199H29.3686C29.4624 16.2955 32.1641 18.2472 36.3999 18.2472C40.6612 18.2472 43.1669 16.2102 43.1754 13.0142C43.1669 10.108 40.9766 8.56534 37.9425 7.88352L36.3743 7.50852C34.8572 7.15909 33.5874 6.59659 33.6129 5.34375C33.6129 4.21875 34.6101 3.39204 36.4169 3.39204C38.1811 3.39204 39.2635 4.19318 39.3999 5.56534ZM44.9929 3.58807H50.3366V18H53.9844V3.58807H59.3281V0.545454H44.9929V3.58807ZM61.6889 18H73.4844V14.9574H65.3793V10.7898H72.8452V7.74716H65.3793V3.58807H73.4503V0.545454H61.6889V18ZM76.3842 18H80.0746V11.8125H82.7678L86.0746 18H90.1484L86.4411 11.2159C88.4268 10.3636 89.5263 8.63352 89.5263 6.24716C89.5263 2.77841 87.2337 0.545454 83.2706 0.545454H76.3842V18ZM80.0746 8.84659V3.5625H82.5632C84.6939 3.5625 85.7251 4.50852 85.7251 6.24716C85.7251 7.97727 84.6939 8.84659 82.5803 8.84659H80.0746Z" fill="white"/>
</svg>
